Coordinates
version=1
nRows=17
nColumns=40
inDegrees=yes

Units are S.I. units (second, meters, Newtons, ...)
Angles are in degrees.

endheader
time	pelvis_tilt	pelvis_list	pelvis_rotation	pelvis_tx	pelvis_ty	pelvis_tz	hip_flexion_r	hip_adduction_r	hip_rotation_r	knee_angle_r	knee_angle_r_beta	ankle_angle_r	subtalar_angle_r	mtp_angle_r	hip_flexion_l	hip_adduction_l	hip_rotation_l	knee_angle_l	knee_angle_l_beta	ankle_angle_l	subtalar_angle_l	mtp_angle_l	lumbar_extension	lumbar_bending	lumbar_rotation	arm_flex_r	arm_add_r	arm_rot_r	elbow_flex_r	pro_sup_r	wrist_flex_r	wrist_dev_r	arm_flex_l	arm_add_l	arm_rot_l	elbow_flex_l	pro_sup_l	wrist_flex_l	wrist_dev_l
      1.91000000	      1.78835452	      1.06928884	     -4.78369233	      0.37250053	      0.89714208	     -1.02009325	     16.07765125	     -4.27791376	     -4.68783370	    -53.52696449	     -0.93422177	      3.61553088	    -14.74825121	      5.47080297	      3.61907516	     -4.89956119	     10.14348675	    -15.55485289	     -0.27148340	      8.23910739	     -0.66919432	     -5.11708650	     -7.11424701	     -0.18271397	      1.78074811	      8.43771308	     -8.84775652	     17.82194690	     16.26184980	     89.95437384	      0.00000000	      0.00000000	      8.35551426	     10.41414952	    -19.80897094	     18.29187438	     89.95437384	      0.00000000	      0.00000000
      1.92000000	      1.64266031	      0.95863789	     -4.68628633	      0.37945549	      0.89699409	     -1.02065531	     16.97141366	     -3.96060100	     -4.71306221	    -52.30779279	     -0.91294321	      3.94652960	    -14.30729224	      5.40272398	      3.27303153	     -4.85049592	     10.02854405	    -15.56500995	     -0.27166067	      8.57099873	     -0.71831024	     -5.09362557	     -6.88278522	      0.02574994	      1.64414299	      8.12369089	     -8.94618688	     17.76093410	     16.19071604	     89.95437384	      0.00000000	      0.00000000	      8.78433504	     10.55284383	    -19.61545000	     18.80549939	     89.95437384	      0.00000000	      0.00000000
      1.93000000	      1.91265438	      0.35737033	     -4.42471807	      0.38632303	      0.89754637	     -1.02106245	     17.11041989	     -3.15465102	     -5.07139279	    -50.63850519	     -0.88380864	      4.36356588	    -13.65300794	      5.37321929	      2.38786220	     -4.26466124	      9.79337105	    -15.51239313	     -0.27074234	      9.24602148	     -0.95883039	     -5.12608826	     -7.22973193	      0.74673798	      1.30721076	      8.01017065	     -9.02983897	     17.50768595	     16.10260929	     89.95437384	      0.00000000	      0.00000000	      9.20354537	     10.58542566	    -18.83609862	     19.40640699	     89.95437384	      0.00000000	      0.00000000
      1.94000000	      1.73085629	      0.41778484	     -4.36517210	      0.39306130	      0.89712080	     -1.02176350	     18.10597356	     -3.09600739	     -5.16876512	    -49.42386492	     -0.86260917	      4.48225987	    -13.25471959	      5.30782901	      2.12826704	     -4.40943248	      9.78643629	    -15.56677077	     -0.27169140	      9.36032528	     -1.04898109	     -5.09097465	     -6.98228161	      0.78356826	      1.22606542	      7.72272587	     -9.14189905	     17.46262907	     16.03975866	     89.95437384	      0.00000000	      0.00000000	      9.64602330	     10.69150681	    -18.62358015	     19.91318636	     89.95437384	      0.00000000	      0.00000000
      1.95000000	      1.57729702	      0.35510011	     -4.27801719	      0.39973597	      0.89665822	     -1.02229781	     18.96815375	     -2.90834102	     -5.38813402	    -48.03595023	     -0.83838549	      4.69352954	    -12.93288044	      5.25687848	      1.79093762	     -4.39927641	      9.76188236	    -15.49977732	     -0.27052215	      9.67447522	     -1.16199977	     -5.10010409	     -6.77939848	      0.93585906	      1.09179134	      7.51496013	     -9.21756272	     17.42939559	     15.91811366	     89.95437384	      0.00000000	      0.00000000	     10.08029415	     10.80657467	    -18.37150722	     20.43803187	     89.95437384	      0.00000000	      0.00000000
      1.96000000	      1.98258876	     -0.32105179	     -3.94830370	      0.40662030	      0.89721135	     -1.02270133	     18.82188629	     -2.04938932	     -5.85337479	    -46.13290429	     -0.80517107	      4.84364600	    -12.52597256	      5.23361560	      0.75867772	     -3.72899948	      9.42725838	    -15.47184732	     -0.27003468	     10.34709639	     -1.56359841	     -5.24811303	     -7.31266911	      1.73397525	      0.64173454	      7.50035925	     -9.27455771	     17.29663652	     15.75975202	     89.95437384	      0.00000000	      0.00000000	     10.40407788	     10.84521447	    -17.41703368	     21.23120375	     89.95437384	      0.00000000	      0.00000000
      1.97000000	      1.84559831	     -0.22667913	     -3.88391992	      0.41327003	      0.89656488	     -1.02329110	     19.69579947	     -2.12141265	     -6.21093221	    -44.81082241	     -0.78209639	      4.93937167	    -12.27023544	      5.19736931	      0.41487696	     -3.88549178	      9.58279172	    -15.43372389	     -0.26936930	     10.51018718	     -1.66400002	     -5.24186288	     -7.13246512	      1.71511091	      0.53076709	      7.27274114	     -9.35498956	     17.28097490	     15.71647334	     89.95437384	      0.00000000	      0.00000000	     10.85114260	     10.91564508	    -17.17733544	     21.69258587	     89.95437384	      0.00000000	      0.00000000
      1.98000000	      1.74513867	     -0.27084060	     -3.83975162	      0.41987768	      0.89595763	     -1.02352228	     20.41741749	     -2.01440135	     -6.64740591	    -43.30210869	     -0.75576437	      5.07353693	    -11.92787158	      5.15229584	     -0.00748625	     -3.89628308	      9.53904328	    -15.35125847	     -0.26793000	     10.81434308	     -1.79006373	     -5.26472868	     -7.03162844	      1.81748290	      0.43962135	      7.07429189	     -9.40796749	     17.26580457	     15.64037139	     89.95437384	      0.00000000	      0.00000000	     11.26043889	     10.99729869	    -16.90811432	     22.22197003	     89.95437384	      0.00000000	      0.00000000
      1.99000000	      2.32469595	     -0.95443345	     -3.49639363	      0.42680202	      0.89659102	     -1.02378484	     19.93478097	     -1.24242383	     -7.32309592	    -41.18904432	     -0.71888444	      5.14336803	    -11.06668751	      5.03198358	     -1.35719955	     -3.21487997	      9.14433201	    -15.08040111	     -0.26320265	     11.45035225	     -2.18943442	     -5.41940352	     -7.76981626	      2.60512948	     -0.01993387	      7.08697559	     -9.46564750	     17.20091663	     15.56355556	     89.95437384	      0.00000000	      0.00000000	     11.58164477	     11.05600341	    -16.20082232	     22.99862445	     89.95437384	      0.00000000	      0.00000000
      2.00000000	      2.16882794	     -0.77364855	     -3.47631008	      0.43328249	      0.89570868	     -1.02415033	     20.77682329	     -1.40230992	     -7.75692173	    -39.82819168	     -0.69513308	      5.27364384	    -10.75156260	      4.97224236	     -1.69090458	     -3.45898819	      9.35519977	    -14.98566540	     -0.26154920	     11.61304888	     -2.25708491	     -5.41337697	     -7.61337919	      2.47066380	     -0.07429378	      6.86930058	     -9.51257376	     17.18719289	     15.53949871	     89.95437384	      0.00000000	      0.00000000	     12.02418391	     11.08225526	    -16.03915962	     23.43793310	     89.95437384	      0.00000000	      0.00000000
      2.01000000	      2.83530101	     -1.16602443	     -3.28538437	      0.44036771	      0.89633123	     -1.02431691	     20.17561320	     -1.01446695	     -8.46731317	    -37.72973378	     -0.65850808	      5.34216192	     -9.22890524	      4.53098983	     -3.25817790	     -3.07970735	      9.38648975	    -14.41827504	     -0.25164637	     11.70284379	     -2.94334142	     -5.58211191	     -8.40984272	      2.91915071	     -0.37035083	      6.83431454	     -9.54450525	     17.02031812	     15.51382788	     89.95437384	      0.00000000	      0.00000000	     12.37351225	     11.11763921	    -15.52884200	     24.09357795	     89.95437384	      0.00000000	      0.00000000
      2.02000000	      2.57885058	     -1.00761677	     -3.31518173	      0.44676352	      0.89521079	     -1.02449716	     21.08129186	     -1.12673254	     -8.84441261	    -36.41881593	     -0.63562825	      5.30159235	     -8.84210785	      4.47255562	     -3.47148572	     -3.28841809	      9.55954168	    -14.33764182	     -0.25023906	     12.01180092	     -2.98653252	     -5.59569630	     -8.14725828	      2.80765585	     -0.38092046	      6.62905066	     -9.57565200	     16.99733878	     15.44115845	     89.95437384	      0.00000000	      0.00000000	     12.76686035	     11.14965921	    -15.47570445	     24.54169122	     89.95437384	      0.00000000	      0.00000000
      2.03000000	      2.89976166	     -1.35356374	     -3.04979018	      0.45340786	      0.89515965	     -1.02489392	     20.89878553	     -0.83432617	     -9.68617537	    -34.43775589	     -0.60105223	      4.77640572	     -7.10031860	      3.89935823	     -4.42900226	     -2.93486147	      9.48360624	    -14.15842185	     -0.24711108	     12.22756178	     -3.39865595	     -5.77405850	     -8.60323705	      3.25324534	     -0.65867783	      6.56089432	     -9.61117593	     16.62751371	     15.38937896	     89.95437384	      0.00000000	      0.00000000	     13.10430567	     11.20058675	    -15.48162371	     25.27418734	     89.95437384	      0.00000000	      0.00000000
      2.04000000	      2.55659949	     -1.27732892	     -3.15656392	      0.45949046	      0.89392429	     -1.02477113	     21.77274466	     -0.78060072	     -9.96017075	    -32.89934327	     -0.57420186	      4.04595590	     -6.37378606	      3.81484957	     -4.58473292	     -3.05688657	      9.43369021	    -14.00489009	     -0.24443144	     12.48764303	     -3.51341875	     -5.81081592	     -8.31263345	      3.20228695	     -0.69239233	      6.45770513	     -9.58614571	     16.54001552	     15.32046828	     89.95437384	      0.00000000	      0.00000000	     13.40254235	     11.28778772	    -15.49263804	     25.79135371	     89.95437384	      0.00000000	      0.00000000
      2.05000000	      2.69329620	     -1.41000893	     -3.09716694	      0.46605890	      0.89353342	     -1.02494817	     21.87898730	     -0.70602892	    -10.86583074	    -31.12557666	     -0.54324379	      3.02839337	     -5.29540471	      3.33835621	     -5.30644971	     -2.96865687	      9.43492792	    -13.88679126	     -0.24237023	     12.70413203	     -3.58064950	     -5.93894142	     -8.54895377	      3.39744956	     -0.80437945	      6.39572755	     -9.56334694	     16.10515294	     15.18071388	     89.95437384	      0.00000000	      0.00000000	     13.71436656	     11.33432303	    -15.67035311	     26.36671871	     89.95437384	      0.00000000	      0.00000000
      2.06000000	      2.38460434	     -1.18378746	     -3.21949868	      0.47225297	      0.89223583	     -1.02501436	     22.73161343	     -0.88679907	    -11.35776674	    -29.88003676	     -0.52150502	      2.60554481	     -4.98077371	      3.34110882	     -5.47228028	     -3.26465875	      9.60365138	    -13.77729823	     -0.24045922	     12.93376314	     -3.59985242	     -5.94496948	     -8.28411331	      3.19987763	     -0.73713862	      6.26597368	     -9.53988410	     16.09114675	     15.07165799	     89.95437384	      0.00000000	      0.00000000	     14.04658382	     11.28932684	    -15.66858970	     26.75774414	     89.95437384	      0.00000000	      0.00000000
      2.07000000	      2.07151576	     -1.11037417	     -3.26416497	      0.47858193	      0.89103295	     -1.02509738	     23.39947220	     -0.88535256	    -11.89957958	    -28.33989772	     -0.49462452	      1.32740026	     -4.23132830	      3.38507600	     -5.70635506	     -3.39130351	      9.62727364	    -13.56576085	     -0.23676719	     13.23510062	     -3.66233350	     -5.97699549	     -8.00673975	      3.17710869	     -0.82684843	      6.17991688	     -9.51774960	     16.01937244	     14.90793594	     89.95437384	      0.00000000	      0.00000000	     14.24008576	     11.32322417	    -15.77780198	     27.23053498	     89.95437384	      0.00000000	      0.00000000
